<mxfile host="app.diagrams.net" modified="2023-05-19T04:06:02.188Z" agent="Mozilla/5.0 (X11; Linux x86_64) AppleWebKit/537.36 (KHTML, like Gecko) Chrome/113.0.0.0 Safari/537.36" version="21.3.2" etag="8rEiM0DOjMVgfpBPm7ih" type="github">
  <diagram name="Page-1" id="7oZ4IlCQMJG1q56XG0Rf">
    <mxGraphModel>
      <root>
        <mxCell id="0" />
        <mxCell id="1" parent="0" />
      </root>
    </mxGraphModel>
  </diagram>
</mxfile>
